<?xml version="1.0" encoding="UTF-8" standalone="no"?>
<!DOCTYPE svg PUBLIC "-//W3C//DTD SVG 1.1//EN"
 "http://www.w3.org/Graphics/SVG/1.1/DTD/svg11.dtd">
<!-- Generated by graphviz version 2.43.0 (0)
 -->
<!-- Title: finite_state_machine Pages: 1 -->
<svg width="426pt" height="259pt"
 viewBox="0.00 0.00 426.19 259.09" xmlns="http://www.w3.org/2000/svg" xmlns:xlink="http://www.w3.org/1999/xlink">
<g id="graph0" class="graph" transform="scale(1 1) rotate(0) translate(4 255.09)">
<title>finite_state_machine</title>
<polygon fill="white" stroke="transparent" points="-4,4 -4,-255.09 422.19,-255.09 422.19,4 -4,4"/>
<!-- 1 -->
<g id="node1" class="node">
<title>1</title>
<ellipse fill="none" stroke="black" cx="149.09" cy="-111.55" rx="18" ry="18"/>
<text text-anchor="middle" x="149.09" y="-107.85" font-family="Helvetica,Arial,sans-serif" font-size="14.00">1</text>
</g>
<!-- 0 -->
<g id="node2" class="node">
<title>0</title>
<ellipse fill="none" stroke="black" cx="266.09" cy="-182.55" rx="18" ry="18"/>
<text text-anchor="middle" x="266.09" y="-178.85" font-family="Helvetica,Arial,sans-serif" font-size="14.00">0</text>
</g>
<!-- 1&#45;&gt;0 -->
<g id="edge1" class="edge">
<title>1&#45;&gt;0</title>
<path fill="none" stroke="black" d="M157.75,-127.45C163.75,-138.3 173.09,-152.17 185.09,-160.55 200.69,-171.44 221.49,-176.95 237.97,-179.73"/>
<polygon fill="black" stroke="black" points="237.68,-183.22 248.08,-181.19 238.68,-176.29 237.68,-183.22"/>
<text text-anchor="middle" x="206.09" y="-180.35" font-family="Helvetica,Arial,sans-serif" font-size="14.00">40/100</text>
</g>
<!-- 2 -->
<g id="node3" class="node">
<title>2</title>
<ellipse fill="none" stroke="black" cx="387.64" cy="-111.55" rx="18" ry="18"/>
<text text-anchor="middle" x="387.64" y="-107.85" font-family="Helvetica,Arial,sans-serif" font-size="14.00">2</text>
</g>
<!-- 1&#45;&gt;2 -->
<g id="edge2" class="edge">
<title>1&#45;&gt;2</title>
<path fill="none" stroke="black" d="M167.11,-111.55C207.58,-111.55 309.92,-111.55 359.24,-111.55"/>
<polygon fill="black" stroke="black" points="359.47,-115.05 369.47,-111.55 359.47,-108.05 359.47,-115.05"/>
<text text-anchor="middle" x="266.09" y="-115.35" font-family="Helvetica,Arial,sans-serif" font-size="14.00">0/100</text>
</g>
<!-- 0&#45;&gt;1 -->
<g id="edge5" class="edge">
<title>0&#45;&gt;1</title>
<path fill="none" stroke="black" d="M254.76,-168.47C247.75,-159.75 237.85,-148.86 227.09,-141.55 218.5,-135.7 194.95,-126.86 176.14,-120.28"/>
<polygon fill="black" stroke="black" points="177.16,-116.93 166.57,-116.99 174.89,-123.55 177.16,-116.93"/>
<text text-anchor="middle" x="206.09" y="-145.35" font-family="Helvetica,Arial,sans-serif" font-size="14.00">0/100</text>
</g>
<!-- 0&#45;&gt;2 -->
<g id="edge6" class="edge">
<title>0&#45;&gt;2</title>
<path fill="none" stroke="black" d="M284.1,-179.85C299.35,-176.87 321.92,-171.04 339.09,-160.55 350.52,-153.57 361.11,-143.21 369.39,-133.82"/>
<polygon fill="black" stroke="black" points="372.28,-135.82 376.03,-125.92 366.92,-131.32 372.28,-135.82"/>
<text text-anchor="middle" x="322.09" y="-178.35" font-family="Helvetica,Arial,sans-serif" font-size="14.00">0/100</text>
</g>
<!-- 1000 -->
<g id="node4" class="node">
<title>1000</title>
<ellipse fill="none" stroke="black" cx="387.64" cy="-220.55" rx="30.59" ry="30.59"/>
<text text-anchor="middle" x="387.64" y="-216.85" font-family="Helvetica,Arial,sans-serif" font-size="14.00">1000</text>
</g>
<!-- 0&#45;&gt;1000 -->
<g id="edge7" class="edge">
<title>0&#45;&gt;1000</title>
<path fill="none" stroke="black" d="M282.81,-189.73C289.58,-192.67 297.65,-195.99 305.09,-198.55 318.8,-203.26 334.07,-207.61 347.66,-211.18"/>
<polygon fill="black" stroke="black" points="347.12,-214.65 357.67,-213.75 348.86,-207.87 347.12,-214.65"/>
<text text-anchor="middle" x="322.09" y="-212.35" font-family="Helvetica,Arial,sans-serif" font-size="14.00">40/40</text>
</g>
<!-- 2&#45;&gt;1 -->
<g id="edge4" class="edge">
<title>2&#45;&gt;1</title>
<path fill="none" stroke="black" d="M370.12,-106.82C343.76,-99.83 290.49,-88.05 245.09,-92.55 221.76,-94.86 195.67,-100.29 176.74,-104.75"/>
<polygon fill="black" stroke="black" points="175.65,-101.41 166.76,-107.17 177.3,-108.22 175.65,-101.41"/>
<text text-anchor="middle" x="266.09" y="-96.35" font-family="Helvetica,Arial,sans-serif" font-size="14.00">20/100</text>
</g>
<!-- 2&#45;&gt;0 -->
<g id="edge3" class="edge">
<title>2&#45;&gt;0</title>
<path fill="none" stroke="black" d="M370.12,-116.4C352.98,-121.88 325.83,-131.86 305.09,-145.55 298.23,-150.08 291.52,-155.96 285.71,-161.69"/>
<polygon fill="black" stroke="black" points="282.81,-159.65 278.39,-169.27 287.85,-164.51 282.81,-159.65"/>
<text text-anchor="middle" x="322.09" y="-149.35" font-family="Helvetica,Arial,sans-serif" font-size="14.00">0/100</text>
</g>
<!-- 2000 -->
<g id="node5" class="node">
<title>2000</title>
<ellipse fill="none" stroke="black" cx="30.55" cy="-30.55" rx="30.59" ry="30.59"/>
<text text-anchor="middle" x="30.55" y="-26.85" font-family="Helvetica,Arial,sans-serif" font-size="14.00">2000</text>
</g>
<!-- 2000&#45;&gt;1 -->
<g id="edge8" class="edge">
<title>2000&#45;&gt;1</title>
<path fill="none" stroke="black" d="M55.98,-47.53C76.47,-61.77 105.5,-81.95 125.47,-95.82"/>
<polygon fill="black" stroke="black" points="123.73,-98.88 133.94,-101.71 127.73,-93.13 123.73,-98.88"/>
<text text-anchor="middle" x="96.09" y="-89.35" font-family="Helvetica,Arial,sans-serif" font-size="14.00">20/20</text>
</g>
<!-- 2000&#45;&gt;2 -->
<g id="edge9" class="edge">
<title>2000&#45;&gt;2</title>
<path fill="none" stroke="black" d="M60.92,-34.05C116.27,-41.15 239.44,-59.25 339.09,-90.55 346.67,-92.93 354.66,-96.15 361.88,-99.36"/>
<polygon fill="black" stroke="black" points="360.59,-102.62 371.13,-103.64 363.53,-96.27 360.59,-102.62"/>
<text text-anchor="middle" x="206.09" y="-66.35" font-family="Helvetica,Arial,sans-serif" font-size="14.00">20/20</text>
</g>
</g>
</svg>
