<?xml version="1.0" encoding="UTF-8" standalone="no"?>
<!DOCTYPE svg PUBLIC "-//W3C//DTD SVG 1.1//EN"
 "http://www.w3.org/Graphics/SVG/1.1/DTD/svg11.dtd">
<!-- Generated by graphviz version 2.43.0 (0)
 -->
<!-- Title: finite_state_machine Pages: 1 -->
<svg width="636pt" height="365pt"
 viewBox="0.00 0.00 635.79 365.00" xmlns="http://www.w3.org/2000/svg" xmlns:xlink="http://www.w3.org/1999/xlink">
<g id="graph0" class="graph" transform="scale(1 1) rotate(0) translate(4 361)">
<title>finite_state_machine</title>
<polygon fill="white" stroke="transparent" points="-4,4 -4,-361 631.79,-361 631.79,4 -4,4"/>
<!-- 7 -->
<g id="node1" class="node">
<title>7</title>
<ellipse fill="none" stroke="black" cx="18" cy="-46" rx="18" ry="18"/>
<text text-anchor="middle" x="18" y="-42.3" font-family="Helvetica,Arial,sans-serif" font-size="14.00">7</text>
</g>
<!-- 10 -->
<g id="node2" class="node">
<title>10</title>
<ellipse fill="none" stroke="black" cx="100.8" cy="-125" rx="20.6" ry="20.6"/>
<text text-anchor="middle" x="100.8" y="-121.3" font-family="Helvetica,Arial,sans-serif" font-size="14.00">10</text>
</g>
<!-- 7&#45;&gt;10 -->
<g id="edge1" class="edge">
<title>7&#45;&gt;10</title>
<path fill="none" stroke="black" d="M31.62,-58.34C44.02,-70.46 63.18,-89.2 78.04,-103.72"/>
<polygon fill="black" stroke="black" points="75.76,-106.39 85.35,-110.88 80.65,-101.38 75.76,-106.39"/>
<text text-anchor="middle" x="58" y="-91.8" font-family="Helvetica,Arial,sans-serif" font-size="14.00">1</text>
</g>
<!-- 12 -->
<g id="node3" class="node">
<title>12</title>
<ellipse fill="none" stroke="black" cx="186.39" cy="-55" rx="20.6" ry="20.6"/>
<text text-anchor="middle" x="186.39" y="-51.3" font-family="Helvetica,Arial,sans-serif" font-size="14.00">12</text>
</g>
<!-- 7&#45;&gt;12 -->
<g id="edge2" class="edge">
<title>7&#45;&gt;12</title>
<path fill="none" stroke="black" d="M36.18,-46.93C64.32,-48.45 120.6,-51.5 155.42,-53.38"/>
<polygon fill="black" stroke="black" points="155.31,-56.88 165.49,-53.92 155.69,-49.89 155.31,-56.88"/>
<text text-anchor="middle" x="100.8" y="-55.8" font-family="Helvetica,Arial,sans-serif" font-size="14.00">2</text>
</g>
<!-- 10&#45;&gt;12 -->
<g id="edge22" class="edge">
<title>10&#45;&gt;12</title>
<path fill="none" stroke="black" d="M113.44,-108.27C120.34,-99.17 129.65,-88.14 139.6,-80 145.15,-75.45 151.66,-71.32 158,-67.79"/>
<polygon fill="black" stroke="black" points="159.79,-70.8 167.03,-63.06 156.55,-64.6 159.79,-70.8"/>
<text text-anchor="middle" x="143.6" y="-83.8" font-family="Helvetica,Arial,sans-serif" font-size="14.00">6</text>
</g>
<!-- 9 -->
<g id="node6" class="node">
<title>9</title>
<ellipse fill="none" stroke="black" cx="186.39" cy="-180" rx="18" ry="18"/>
<text text-anchor="middle" x="186.39" y="-176.3" font-family="Helvetica,Arial,sans-serif" font-size="14.00">9</text>
</g>
<!-- 10&#45;&gt;9 -->
<g id="edge23" class="edge">
<title>10&#45;&gt;9</title>
<path fill="none" stroke="black" d="M121.49,-128.6C129.96,-130.74 139.71,-134.04 147.6,-139 155.49,-143.96 162.79,-151 168.83,-157.84"/>
<polygon fill="black" stroke="black" points="166.23,-160.18 175.31,-165.65 171.62,-155.71 166.23,-160.18"/>
<text text-anchor="middle" x="143.6" y="-142.8" font-family="Helvetica,Arial,sans-serif" font-size="14.00">3</text>
</g>
<!-- 5 -->
<g id="node4" class="node">
<title>5</title>
<ellipse fill="none" stroke="black" cx="609.79" cy="-147" rx="18" ry="18"/>
<text text-anchor="middle" x="609.79" y="-143.3" font-family="Helvetica,Arial,sans-serif" font-size="14.00">5</text>
</g>
<!-- 5&#45;&gt;7 -->
<g id="edge3" class="edge">
<title>5&#45;&gt;7</title>
<path fill="none" stroke="black" d="M607.24,-128.97C602.79,-89.72 586.23,0 527.99,0 99.8,0 99.8,0 99.8,0 76.78,0 54.34,-14.27 38.97,-26.92"/>
<polygon fill="black" stroke="black" points="36.45,-24.47 31.2,-33.67 41.04,-29.75 36.45,-24.47"/>
<text text-anchor="middle" x="316.69" y="-3.8" font-family="Helvetica,Arial,sans-serif" font-size="14.00">1</text>
</g>
<!-- 5&#45;&gt;10 -->
<g id="edge4" class="edge">
<title>5&#45;&gt;10</title>
<path fill="none" stroke="black" d="M595.11,-136.01C579.74,-124.79 553.57,-109 527.99,-109 185.39,-109 185.39,-109 185.39,-109 166.97,-109 146.66,-112.8 130.68,-116.69"/>
<polygon fill="black" stroke="black" points="129.67,-113.34 120.86,-119.22 131.42,-120.11 129.67,-113.34"/>
<text text-anchor="middle" x="359.19" y="-112.8" font-family="Helvetica,Arial,sans-serif" font-size="14.00">1</text>
</g>
<!-- 11 -->
<g id="node5" class="node">
<title>11</title>
<ellipse fill="none" stroke="black" cx="526.99" cy="-163" rx="20.6" ry="20.6"/>
<text text-anchor="middle" x="526.99" y="-159.3" font-family="Helvetica,Arial,sans-serif" font-size="14.00">11</text>
</g>
<!-- 11&#45;&gt;9 -->
<g id="edge5" class="edge">
<title>11&#45;&gt;9</title>
<path fill="none" stroke="black" d="M506.11,-164C485.97,-165 453.91,-166.61 426.19,-168 349.56,-171.84 259.1,-176.39 214.73,-178.63"/>
<polygon fill="black" stroke="black" points="214.29,-175.14 204.48,-179.14 214.64,-182.13 214.29,-175.14"/>
<text text-anchor="middle" x="359.19" y="-176.8" font-family="Helvetica,Arial,sans-serif" font-size="14.00">2</text>
</g>
<!-- 9&#45;&gt;10 -->
<g id="edge21" class="edge">
<title>9&#45;&gt;10</title>
<path fill="none" stroke="black" d="M169.14,-173.47C160.12,-169.54 148.88,-164.12 139.6,-158 134.15,-154.41 128.67,-150.1 123.62,-145.8"/>
<polygon fill="black" stroke="black" points="125.93,-143.17 116.13,-139.15 121.29,-148.41 125.93,-143.17"/>
<text text-anchor="middle" x="143.6" y="-166.8" font-family="Helvetica,Arial,sans-serif" font-size="14.00">1</text>
</g>
<!-- 6 -->
<g id="node11" class="node">
<title>6</title>
<ellipse fill="none" stroke="black" cx="274.19" cy="-231" rx="18" ry="18"/>
<text text-anchor="middle" x="274.19" y="-227.3" font-family="Helvetica,Arial,sans-serif" font-size="14.00">6</text>
</g>
<!-- 9&#45;&gt;6 -->
<g id="edge20" class="edge">
<title>9&#45;&gt;6</title>
<path fill="none" stroke="black" d="M204.39,-180.55C214.77,-181.54 227.95,-184.01 238.19,-190 245.69,-194.39 252.35,-200.98 257.8,-207.61"/>
<polygon fill="black" stroke="black" points="255.2,-209.98 264.02,-215.85 260.79,-205.76 255.2,-209.98"/>
<text text-anchor="middle" x="231.69" y="-193.8" font-family="Helvetica,Arial,sans-serif" font-size="14.00">3</text>
</g>
<!-- 8 -->
<g id="node7" class="node">
<title>8</title>
<ellipse fill="none" stroke="black" cx="444.19" cy="-195" rx="18" ry="18"/>
<text text-anchor="middle" x="444.19" y="-191.3" font-family="Helvetica,Arial,sans-serif" font-size="14.00">8</text>
</g>
<!-- 8&#45;&gt;11 -->
<g id="edge6" class="edge">
<title>8&#45;&gt;11</title>
<path fill="none" stroke="black" d="M461.16,-188.68C471.68,-184.51 485.75,-178.94 498.09,-174.05"/>
<polygon fill="black" stroke="black" points="499.51,-177.25 507.52,-170.32 496.93,-170.75 499.51,-177.25"/>
<text text-anchor="middle" x="484.19" y="-184.8" font-family="Helvetica,Arial,sans-serif" font-size="14.00">2</text>
</g>
<!-- 2 -->
<g id="node8" class="node">
<title>2</title>
<ellipse fill="none" stroke="black" cx="526.99" cy="-222" rx="18" ry="18"/>
<text text-anchor="middle" x="526.99" y="-218.3" font-family="Helvetica,Arial,sans-serif" font-size="14.00">2</text>
</g>
<!-- 2&#45;&gt;5 -->
<g id="edge7" class="edge">
<title>2&#45;&gt;5</title>
<path fill="none" stroke="black" d="M540.97,-209.95C553.77,-198.07 573.52,-179.74 588.41,-165.92"/>
<polygon fill="black" stroke="black" points="591.16,-168.14 596.11,-158.77 586.4,-163.01 591.16,-168.14"/>
<text text-anchor="middle" x="569.79" y="-190.8" font-family="Helvetica,Arial,sans-serif" font-size="14.00">2</text>
</g>
<!-- 4 -->
<g id="node9" class="node">
<title>4</title>
<ellipse fill="none" stroke="black" cx="609.79" cy="-327" rx="18" ry="18"/>
<text text-anchor="middle" x="609.79" y="-323.3" font-family="Helvetica,Arial,sans-serif" font-size="14.00">4</text>
</g>
<!-- 4&#45;&gt;10 -->
<g id="edge8" class="edge">
<title>4&#45;&gt;10</title>
<path fill="none" stroke="black" d="M592.24,-331.91C576.03,-336.29 550.53,-342 527.99,-342 185.39,-342 185.39,-342 185.39,-342 145.88,-342 117.92,-215.13 106.94,-155.4"/>
<polygon fill="black" stroke="black" points="110.36,-154.64 105.15,-145.41 103.47,-155.88 110.36,-154.64"/>
<text text-anchor="middle" x="359.19" y="-345.8" font-family="Helvetica,Arial,sans-serif" font-size="14.00">2</text>
</g>
<!-- 1 -->
<g id="node10" class="node">
<title>1</title>
<ellipse fill="none" stroke="black" cx="526.99" cy="-286" rx="18" ry="18"/>
<text text-anchor="middle" x="526.99" y="-282.3" font-family="Helvetica,Arial,sans-serif" font-size="14.00">1</text>
</g>
<!-- 1&#45;&gt;5 -->
<g id="edge9" class="edge">
<title>1&#45;&gt;5</title>
<path fill="none" stroke="black" d="M536.79,-270.86C550.76,-246.84 578.11,-199.78 594.79,-171.09"/>
<polygon fill="black" stroke="black" points="598,-172.53 600,-162.12 591.95,-169.01 598,-172.53"/>
<text text-anchor="middle" x="569.79" y="-223.8" font-family="Helvetica,Arial,sans-serif" font-size="14.00">2</text>
</g>
<!-- 1&#45;&gt;4 -->
<g id="edge11" class="edge">
<title>1&#45;&gt;4</title>
<path fill="none" stroke="black" d="M543.57,-293.91C555.16,-299.78 571.19,-307.92 584.46,-314.66"/>
<polygon fill="black" stroke="black" points="583.03,-317.85 593.53,-319.26 586.2,-311.61 583.03,-317.85"/>
<text text-anchor="middle" x="569.79" y="-311.8" font-family="Helvetica,Arial,sans-serif" font-size="14.00">2</text>
</g>
<!-- 1&#45;&gt;6 -->
<g id="edge10" class="edge">
<title>1&#45;&gt;6</title>
<path fill="none" stroke="black" d="M509.02,-284.54C500.39,-283.79 489.73,-282.86 480.19,-282 456.19,-279.84 449.9,-281.33 426.19,-277 373.58,-267.39 360.88,-262.07 310.19,-245 307.03,-243.93 303.74,-242.74 300.49,-241.51"/>
<polygon fill="black" stroke="black" points="301.67,-238.21 291.08,-237.79 299.1,-244.72 301.67,-238.21"/>
<text text-anchor="middle" x="401.69" y="-276.8" font-family="Helvetica,Arial,sans-serif" font-size="14.00">2</text>
</g>
<!-- 6&#45;&gt;9 -->
<g id="edge19" class="edge">
<title>6&#45;&gt;9</title>
<path fill="none" stroke="black" d="M257.17,-224.73C247.62,-220.73 235.4,-215.15 225.19,-209 219.52,-205.58 213.7,-201.47 208.38,-197.42"/>
<polygon fill="black" stroke="black" points="210.54,-194.67 200.52,-191.24 206.21,-200.17 210.54,-194.67"/>
<text text-anchor="middle" x="231.69" y="-218.8" font-family="Helvetica,Arial,sans-serif" font-size="14.00">&#45;1</text>
</g>
<!-- 3 -->
<g id="node13" class="node">
<title>3</title>
<ellipse fill="none" stroke="black" cx="359.19" cy="-220" rx="18" ry="18"/>
<text text-anchor="middle" x="359.19" y="-216.3" font-family="Helvetica,Arial,sans-serif" font-size="14.00">3</text>
</g>
<!-- 6&#45;&gt;3 -->
<g id="edge18" class="edge">
<title>6&#45;&gt;3</title>
<path fill="none" stroke="black" d="M292.39,-228.72C303.59,-227.24 318.44,-225.27 331.2,-223.58"/>
<polygon fill="black" stroke="black" points="331.85,-227.02 341.3,-222.24 330.93,-220.08 331.85,-227.02"/>
<text text-anchor="middle" x="316.69" y="-229.8" font-family="Helvetica,Arial,sans-serif" font-size="14.00">3</text>
</g>
<!-- 0 -->
<g id="node12" class="node">
<title>0</title>
<ellipse fill="none" stroke="black" cx="444.19" cy="-250" rx="18" ry="18"/>
<text text-anchor="middle" x="444.19" y="-246.3" font-family="Helvetica,Arial,sans-serif" font-size="14.00">0</text>
</g>
<!-- 0&#45;&gt;2 -->
<g id="edge13" class="edge">
<title>0&#45;&gt;2</title>
<path fill="none" stroke="black" d="M459.11,-239.31C465.26,-235.11 472.76,-230.68 480.19,-228 485.99,-225.91 492.44,-224.54 498.62,-223.63"/>
<polygon fill="black" stroke="black" points="499.06,-227.11 508.61,-222.52 498.29,-220.15 499.06,-227.11"/>
<text text-anchor="middle" x="484.19" y="-231.8" font-family="Helvetica,Arial,sans-serif" font-size="14.00">2</text>
</g>
<!-- 0&#45;&gt;1 -->
<g id="edge12" class="edge">
<title>0&#45;&gt;1</title>
<path fill="none" stroke="black" d="M461.26,-255.96C469.4,-259.08 479.4,-263.06 488.19,-267 492.53,-268.94 497.1,-271.12 501.49,-273.29"/>
<polygon fill="black" stroke="black" points="500.19,-276.55 510.69,-277.92 503.33,-270.3 500.19,-276.55"/>
<text text-anchor="middle" x="484.19" y="-270.8" font-family="Helvetica,Arial,sans-serif" font-size="14.00">4</text>
</g>
<!-- 0&#45;&gt;3 -->
<g id="edge14" class="edge">
<title>0&#45;&gt;3</title>
<path fill="none" stroke="black" d="M426.56,-245.79C417.23,-243.27 405.44,-239.81 395.19,-236 391.83,-234.75 388.35,-233.32 384.93,-231.85"/>
<polygon fill="black" stroke="black" points="386.22,-228.59 375.67,-227.66 383.34,-234.97 386.22,-228.59"/>
<text text-anchor="middle" x="401.69" y="-243.8" font-family="Helvetica,Arial,sans-serif" font-size="14.00">&#45;1</text>
</g>
<!-- 3&#45;&gt;8 -->
<g id="edge15" class="edge">
<title>3&#45;&gt;8</title>
<path fill="none" stroke="black" d="M369.61,-205.24C375.77,-197.02 384.63,-187.55 395.19,-183 402.54,-179.83 410.9,-180.56 418.56,-182.77"/>
<polygon fill="black" stroke="black" points="417.49,-186.11 428.08,-186.32 419.93,-179.55 417.49,-186.11"/>
<text text-anchor="middle" x="401.69" y="-186.8" font-family="Helvetica,Arial,sans-serif" font-size="14.00">2</text>
</g>
<!-- 3&#45;&gt;6 -->
<g id="edge17" class="edge">
<title>3&#45;&gt;6</title>
<path fill="none" stroke="black" d="M343.43,-211.07C333.9,-206.45 321.27,-202.45 310.19,-206 305.29,-207.57 300.5,-210.1 296.1,-212.97"/>
<polygon fill="black" stroke="black" points="293.73,-210.37 287.75,-219.12 297.87,-216.01 293.73,-210.37"/>
<text text-anchor="middle" x="316.69" y="-209.8" font-family="Helvetica,Arial,sans-serif" font-size="14.00">&#45;1</text>
</g>
<!-- 3&#45;&gt;0 -->
<g id="edge16" class="edge">
<title>3&#45;&gt;0</title>
<path fill="none" stroke="black" d="M376.74,-215.54C386.26,-213.81 398.26,-213.06 408.19,-217 414.51,-219.51 420.35,-223.76 425.37,-228.38"/>
<polygon fill="black" stroke="black" points="423.07,-231.04 432.55,-235.78 428.09,-226.16 423.07,-231.04"/>
<text text-anchor="middle" x="401.69" y="-220.8" font-family="Helvetica,Arial,sans-serif" font-size="14.00">3</text>
</g>
</g>
</svg>
