<?xml version="1.0" encoding="UTF-8" standalone="no"?>
<!DOCTYPE svg PUBLIC "-//W3C//DTD SVG 1.1//EN"
 "http://www.w3.org/Graphics/SVG/1.1/DTD/svg11.dtd">
<!-- Generated by graphviz version 2.43.0 (0)
 -->
<!-- Title: finite_state_machine Pages: 1 -->
<svg width="365pt" height="247pt"
 viewBox="0.00 0.00 364.79 247.40" xmlns="http://www.w3.org/2000/svg" xmlns:xlink="http://www.w3.org/1999/xlink">
<g id="graph0" class="graph" transform="scale(1 1) rotate(0) translate(4 243.4)">
<title>finite_state_machine</title>
<polygon fill="white" stroke="transparent" points="-4,4 -4,-243.4 360.79,-243.4 360.79,4 -4,4"/>
<!-- 1 -->
<g id="node1" class="node">
<title>1</title>
<ellipse fill="none" stroke="black" cx="107.7" cy="-99.85" rx="18" ry="18"/>
<text text-anchor="middle" x="107.7" y="-96.15" font-family="Helvetica,Arial,sans-serif" font-size="14.00">1</text>
</g>
<!-- 0 -->
<g id="node2" class="node">
<title>0</title>
<ellipse fill="none" stroke="black" cx="210.7" cy="-170.85" rx="18" ry="18"/>
<text text-anchor="middle" x="210.7" y="-167.15" font-family="Helvetica,Arial,sans-serif" font-size="14.00">0</text>
</g>
<!-- 1&#45;&gt;0 -->
<g id="edge1" class="edge">
<title>1&#45;&gt;0</title>
<path fill="none" stroke="black" d="M116.49,-115.56C122.56,-126.31 131.92,-140.15 143.7,-148.85 155.08,-157.26 169.87,-162.58 182.57,-165.88"/>
<polygon fill="black" stroke="black" points="182.09,-169.36 192.62,-168.19 183.66,-162.53 182.09,-169.36"/>
<text text-anchor="middle" x="159.2" y="-166.65" font-family="Helvetica,Arial,sans-serif" font-size="14.00">1000</text>
</g>
<!-- 2 -->
<g id="node3" class="node">
<title>2</title>
<ellipse fill="none" stroke="black" cx="326.24" cy="-99.85" rx="18" ry="18"/>
<text text-anchor="middle" x="326.24" y="-96.15" font-family="Helvetica,Arial,sans-serif" font-size="14.00">2</text>
</g>
<!-- 1&#45;&gt;2 -->
<g id="edge2" class="edge">
<title>1&#45;&gt;2</title>
<path fill="none" stroke="black" d="M126.05,-99.85C163.6,-99.85 252.64,-99.85 297.87,-99.85"/>
<polygon fill="black" stroke="black" points="298.11,-103.35 308.11,-99.85 298.11,-96.35 298.11,-103.35"/>
<text text-anchor="middle" x="210.7" y="-103.65" font-family="Helvetica,Arial,sans-serif" font-size="14.00">1000</text>
</g>
<!-- 0&#45;&gt;1 -->
<g id="edge5" class="edge">
<title>0&#45;&gt;1</title>
<path fill="none" stroke="black" d="M199.67,-156.15C193.29,-147.63 184.42,-137.17 174.7,-129.85 162.64,-120.77 147.39,-113.61 134.59,-108.57"/>
<polygon fill="black" stroke="black" points="135.55,-105.19 124.96,-104.98 133.11,-111.75 135.55,-105.19"/>
<text text-anchor="middle" x="159.2" y="-133.65" font-family="Helvetica,Arial,sans-serif" font-size="14.00">1000</text>
</g>
<!-- 0&#45;&gt;2 -->
<g id="edge6" class="edge">
<title>0&#45;&gt;2</title>
<path fill="none" stroke="black" d="M228.66,-167.55C242.6,-164.31 262.46,-158.42 277.7,-148.85 289.03,-141.73 299.62,-131.35 307.91,-121.98"/>
<polygon fill="black" stroke="black" points="310.78,-124.01 314.57,-114.11 305.44,-119.49 310.78,-124.01"/>
<text text-anchor="middle" x="262.2" y="-165.65" font-family="Helvetica,Arial,sans-serif" font-size="14.00">1000</text>
</g>
<!-- 1000 -->
<g id="node4" class="node">
<title>1000</title>
<ellipse fill="none" stroke="black" cx="326.24" cy="-208.85" rx="30.59" ry="30.59"/>
<text text-anchor="middle" x="326.24" y="-205.15" font-family="Helvetica,Arial,sans-serif" font-size="14.00">1000</text>
</g>
<!-- 0&#45;&gt;1000 -->
<g id="edge7" class="edge">
<title>0&#45;&gt;1000</title>
<path fill="none" stroke="black" d="M227.16,-178.55C233.17,-181.37 240.17,-184.46 246.7,-186.85 259.39,-191.5 273.55,-195.74 286.3,-199.23"/>
<polygon fill="black" stroke="black" points="285.61,-202.67 296.18,-201.86 287.42,-195.9 285.61,-202.67"/>
<text text-anchor="middle" x="262.2" y="-199.65" font-family="Helvetica,Arial,sans-serif" font-size="14.00">20</text>
</g>
<!-- 2&#45;&gt;1 -->
<g id="edge4" class="edge">
<title>2&#45;&gt;1</title>
<path fill="none" stroke="black" d="M308.55,-94.71C283.46,-87.61 234.51,-76.18 192.7,-80.85 173.19,-83.03 151.61,-87.97 135.2,-92.26"/>
<polygon fill="black" stroke="black" points="133.98,-88.97 125.24,-94.96 135.81,-95.72 133.98,-88.97"/>
<text text-anchor="middle" x="210.7" y="-84.65" font-family="Helvetica,Arial,sans-serif" font-size="14.00">1000</text>
</g>
<!-- 2&#45;&gt;0 -->
<g id="edge3" class="edge">
<title>2&#45;&gt;0</title>
<path fill="none" stroke="black" d="M308.92,-104.75C292.31,-110.22 266.29,-120.13 246.7,-133.85 240.56,-138.14 234.66,-143.64 229.5,-149.08"/>
<polygon fill="black" stroke="black" points="226.61,-147.07 222.55,-156.86 231.82,-151.74 226.61,-147.07"/>
<text text-anchor="middle" x="262.2" y="-137.65" font-family="Helvetica,Arial,sans-serif" font-size="14.00">1000</text>
</g>
<!-- &#45;1 -->
<g id="node5" class="node">
<title>&#45;1</title>
<ellipse fill="none" stroke="black" cx="18.85" cy="-18.85" rx="18.7" ry="18.7"/>
<text text-anchor="middle" x="18.85" y="-15.15" font-family="Helvetica,Arial,sans-serif" font-size="14.00">&#45;1</text>
</g>
<!-- &#45;1&#45;&gt;1 -->
<g id="edge8" class="edge">
<title>&#45;1&#45;&gt;1</title>
<path fill="none" stroke="black" d="M33.42,-31.5C47.69,-44.81 70.29,-65.89 86.62,-81.12"/>
<polygon fill="black" stroke="black" points="84.37,-83.81 94.07,-88.07 89.14,-78.69 84.37,-83.81"/>
<text text-anchor="middle" x="63.7" y="-70.65" font-family="Helvetica,Arial,sans-serif" font-size="14.00">10</text>
</g>
<!-- &#45;1&#45;&gt;2 -->
<g id="edge9" class="edge">
<title>&#45;1&#45;&gt;2</title>
<path fill="none" stroke="black" d="M37.67,-21.81C80,-29.09 189.63,-49.44 277.7,-78.85 285.23,-81.36 293.2,-84.63 300.42,-87.84"/>
<polygon fill="black" stroke="black" points="299.14,-91.1 309.69,-92.09 302.06,-84.74 299.14,-91.1"/>
<text text-anchor="middle" x="159.2" y="-53.65" font-family="Helvetica,Arial,sans-serif" font-size="14.00">10</text>
</g>
</g>
</svg>
