<?xml version="1.0" encoding="UTF-8" standalone="no"?>
<!DOCTYPE svg PUBLIC "-//W3C//DTD SVG 1.1//EN"
 "http://www.w3.org/Graphics/SVG/1.1/DTD/svg11.dtd">
<!-- Generated by graphviz version 2.43.0 (0)
 -->
<!-- Title: finite_state_machine Pages: 1 -->
<svg width="597pt" height="234pt"
 viewBox="0.00 0.00 596.79 233.80" xmlns="http://www.w3.org/2000/svg" xmlns:xlink="http://www.w3.org/1999/xlink">
<g id="graph0" class="graph" transform="scale(1 1) rotate(0) translate(4 229.8)">
<title>finite_state_machine</title>
<polygon fill="white" stroke="transparent" points="-4,4 -4,-229.8 592.79,-229.8 592.79,4 -4,4"/>
<!-- 11 -->
<g id="node1" class="node">
<title>11</title>
<ellipse fill="none" stroke="black" cx="288.8" cy="-205" rx="20.6" ry="20.6"/>
<text text-anchor="middle" x="288.8" y="-201.3" font-family="Helvetica,Arial,sans-serif" font-size="14.00">11</text>
</g>
<!-- 9 -->
<g id="node2" class="node">
<title>9</title>
<ellipse fill="none" stroke="black" cx="399.6" cy="-185" rx="18" ry="18"/>
<text text-anchor="middle" x="399.6" y="-181.3" font-family="Helvetica,Arial,sans-serif" font-size="14.00">9</text>
</g>
<!-- 11&#45;&gt;9 -->
<g id="edge1" class="edge">
<title>11&#45;&gt;9</title>
<path fill="none" stroke="black" d="M309.5,-201.38C326.86,-198.19 352.31,-193.51 371.57,-189.97"/>
<polygon fill="black" stroke="black" points="372.34,-193.38 381.54,-188.13 371.08,-186.5 372.34,-193.38"/>
<text text-anchor="middle" x="345.6" y="-200.8" font-family="Helvetica,Arial,sans-serif" font-size="14.00">2</text>
</g>
<!-- 10 -->
<g id="node4" class="node">
<title>10</title>
<ellipse fill="none" stroke="black" cx="482.39" cy="-125" rx="20.6" ry="20.6"/>
<text text-anchor="middle" x="482.39" y="-121.3" font-family="Helvetica,Arial,sans-serif" font-size="14.00">10</text>
</g>
<!-- 9&#45;&gt;10 -->
<g id="edge7" class="edge">
<title>9&#45;&gt;10</title>
<path fill="none" stroke="black" d="M414.67,-174.55C426.35,-165.87 443.24,-153.34 457.1,-143.04"/>
<polygon fill="black" stroke="black" points="459.32,-145.75 465.26,-136.98 455.15,-140.13 459.32,-145.75"/>
<text text-anchor="middle" x="439.6" y="-161.8" font-family="Helvetica,Arial,sans-serif" font-size="14.00">2</text>
</g>
<!-- 8 -->
<g id="node3" class="node">
<title>8</title>
<ellipse fill="none" stroke="black" cx="206" cy="-201" rx="18" ry="18"/>
<text text-anchor="middle" x="206" y="-197.3" font-family="Helvetica,Arial,sans-serif" font-size="14.00">8</text>
</g>
<!-- 8&#45;&gt;11 -->
<g id="edge2" class="edge">
<title>8&#45;&gt;11</title>
<path fill="none" stroke="black" d="M224.14,-201.85C233.92,-202.33 246.48,-202.95 257.84,-203.52"/>
<polygon fill="black" stroke="black" points="257.68,-207.01 267.84,-204.01 258.02,-200.02 257.68,-207.01"/>
<text text-anchor="middle" x="246" y="-206.8" font-family="Helvetica,Arial,sans-serif" font-size="14.00">2</text>
</g>
<!-- 12 -->
<g id="node5" class="node">
<title>12</title>
<ellipse fill="none" stroke="black" cx="567.99" cy="-87" rx="20.6" ry="20.6"/>
<text text-anchor="middle" x="567.99" y="-83.3" font-family="Helvetica,Arial,sans-serif" font-size="14.00">12</text>
</g>
<!-- 10&#45;&gt;12 -->
<g id="edge3" class="edge">
<title>10&#45;&gt;12</title>
<path fill="none" stroke="black" d="M501.53,-116.75C512.71,-111.68 527.24,-105.07 539.78,-99.37"/>
<polygon fill="black" stroke="black" points="541.23,-102.55 548.89,-95.23 538.34,-96.18 541.23,-102.55"/>
<text text-anchor="middle" x="525.19" y="-110.8" font-family="Helvetica,Arial,sans-serif" font-size="14.00">6</text>
</g>
<!-- 3 -->
<g id="node6" class="node">
<title>3</title>
<ellipse fill="none" stroke="black" cx="98" cy="-149" rx="18" ry="18"/>
<text text-anchor="middle" x="98" y="-145.3" font-family="Helvetica,Arial,sans-serif" font-size="14.00">3</text>
</g>
<!-- 3&#45;&gt;8 -->
<g id="edge4" class="edge">
<title>3&#45;&gt;8</title>
<path fill="none" stroke="black" d="M114.64,-156.67C131.96,-165.17 160.12,-178.98 180.4,-188.93"/>
<polygon fill="black" stroke="black" points="179.12,-192.2 189.64,-193.46 182.2,-185.92 179.12,-192.2"/>
<text text-anchor="middle" x="152" y="-185.8" font-family="Helvetica,Arial,sans-serif" font-size="14.00">2</text>
</g>
<!-- 6 -->
<g id="node7" class="node">
<title>6</title>
<ellipse fill="none" stroke="black" cx="288.8" cy="-148" rx="18" ry="18"/>
<text text-anchor="middle" x="288.8" y="-144.3" font-family="Helvetica,Arial,sans-serif" font-size="14.00">6</text>
</g>
<!-- 3&#45;&gt;6 -->
<g id="edge5" class="edge">
<title>3&#45;&gt;6</title>
<path fill="none" stroke="black" d="M116.09,-148.91C148.86,-148.74 220.8,-148.35 260.37,-148.15"/>
<polygon fill="black" stroke="black" points="260.63,-151.64 270.61,-148.09 260.59,-144.64 260.63,-151.64"/>
<text text-anchor="middle" x="206" y="-151.8" font-family="Helvetica,Arial,sans-serif" font-size="14.00">0</text>
</g>
<!-- 6&#45;&gt;9 -->
<g id="edge6" class="edge">
<title>6&#45;&gt;9</title>
<path fill="none" stroke="black" d="M306.28,-153.15C321.28,-157.88 344,-165.18 363.6,-172 366.72,-173.09 369.99,-174.26 373.22,-175.43"/>
<polygon fill="black" stroke="black" points="372.02,-178.72 382.62,-178.91 374.45,-172.16 372.02,-178.72"/>
<text text-anchor="middle" x="345.6" y="-175.8" font-family="Helvetica,Arial,sans-serif" font-size="14.00">0</text>
</g>
<!-- 2 -->
<g id="node8" class="node">
<title>2</title>
<ellipse fill="none" stroke="black" cx="152" cy="-18" rx="18" ry="18"/>
<text text-anchor="middle" x="152" y="-14.3" font-family="Helvetica,Arial,sans-serif" font-size="14.00">2</text>
</g>
<!-- 5 -->
<g id="node9" class="node">
<title>5</title>
<ellipse fill="none" stroke="black" cx="288.8" cy="-85" rx="18" ry="18"/>
<text text-anchor="middle" x="288.8" y="-81.3" font-family="Helvetica,Arial,sans-serif" font-size="14.00">5</text>
</g>
<!-- 2&#45;&gt;5 -->
<g id="edge8" class="edge">
<title>2&#45;&gt;5</title>
<path fill="none" stroke="black" d="M169.91,-21.4C184.65,-24.74 206.38,-30.56 224,-39 236.68,-45.07 238.57,-48.82 250,-57 255.1,-60.66 260.55,-64.64 265.67,-68.43"/>
<polygon fill="black" stroke="black" points="263.76,-71.37 273.88,-74.52 267.94,-65.75 263.76,-71.37"/>
<text text-anchor="middle" x="206" y="-42.8" font-family="Helvetica,Arial,sans-serif" font-size="14.00">0</text>
</g>
<!-- 5&#45;&gt;10 -->
<g id="edge9" class="edge">
<title>5&#45;&gt;10</title>
<path fill="none" stroke="black" d="M305.27,-93.04C311.98,-96.25 320.02,-99.71 327.6,-102 369.43,-114.66 419.87,-120.51 451.29,-123.09"/>
<polygon fill="black" stroke="black" points="451.33,-126.61 461.57,-123.88 451.87,-119.63 451.33,-126.61"/>
<text text-anchor="middle" x="399.6" y="-122.8" font-family="Helvetica,Arial,sans-serif" font-size="14.00">0</text>
</g>
<!-- 7 -->
<g id="node10" class="node">
<title>7</title>
<ellipse fill="none" stroke="black" cx="399.6" cy="-80" rx="18" ry="18"/>
<text text-anchor="middle" x="399.6" y="-76.3" font-family="Helvetica,Arial,sans-serif" font-size="14.00">7</text>
</g>
<!-- 5&#45;&gt;7 -->
<g id="edge10" class="edge">
<title>5&#45;&gt;7</title>
<path fill="none" stroke="black" d="M306.8,-84.22C324.02,-83.43 350.94,-82.19 371.18,-81.26"/>
<polygon fill="black" stroke="black" points="371.53,-84.75 381.36,-80.79 371.21,-77.76 371.53,-84.75"/>
<text text-anchor="middle" x="345.6" y="-86.8" font-family="Helvetica,Arial,sans-serif" font-size="14.00">0</text>
</g>
<!-- 7&#45;&gt;10 -->
<g id="edge12" class="edge">
<title>7&#45;&gt;10</title>
<path fill="none" stroke="black" d="M415.79,-88.46C426.76,-94.57 441.84,-102.97 454.78,-110.18"/>
<polygon fill="black" stroke="black" points="453.29,-113.36 463.73,-115.16 456.7,-107.24 453.29,-113.36"/>
<text text-anchor="middle" x="439.6" y="-106.8" font-family="Helvetica,Arial,sans-serif" font-size="14.00">0</text>
</g>
<!-- 7&#45;&gt;12 -->
<g id="edge11" class="edge">
<title>7&#45;&gt;12</title>
<path fill="none" stroke="black" d="M417.68,-79.43C438.05,-78.88 473.14,-78.36 503.19,-80 514.29,-80.61 526.43,-81.8 537.11,-83.04"/>
<polygon fill="black" stroke="black" points="536.86,-86.53 547.21,-84.27 537.7,-79.59 536.86,-86.53"/>
<text text-anchor="middle" x="482.39" y="-83.8" font-family="Helvetica,Arial,sans-serif" font-size="14.00">2</text>
</g>
<!-- 0 -->
<g id="node11" class="node">
<title>0</title>
<ellipse fill="none" stroke="black" cx="18" cy="-81" rx="18" ry="18"/>
<text text-anchor="middle" x="18" y="-77.3" font-family="Helvetica,Arial,sans-serif" font-size="14.00">0</text>
</g>
<!-- 0&#45;&gt;3 -->
<g id="edge13" class="edge">
<title>0&#45;&gt;3</title>
<path fill="none" stroke="black" d="M32.23,-92.54C44.29,-103.05 62.31,-118.76 76.28,-130.94"/>
<polygon fill="black" stroke="black" points="74.13,-133.7 83.96,-137.64 78.73,-128.43 74.13,-133.7"/>
<text text-anchor="middle" x="58" y="-120.8" font-family="Helvetica,Arial,sans-serif" font-size="14.00">0</text>
</g>
<!-- 0&#45;&gt;2 -->
<g id="edge14" class="edge">
<title>0&#45;&gt;2</title>
<path fill="none" stroke="black" d="M31.48,-68.8C37.82,-63.1 45.89,-56.58 54,-52 76.36,-39.36 104.23,-30.19 124.36,-24.58"/>
<polygon fill="black" stroke="black" points="125.35,-27.94 134.1,-21.97 123.54,-21.17 125.35,-27.94"/>
<text text-anchor="middle" x="58" y="-55.8" font-family="Helvetica,Arial,sans-serif" font-size="14.00">0</text>
</g>
<!-- 1 -->
<g id="node12" class="node">
<title>1</title>
<ellipse fill="none" stroke="black" cx="206" cy="-81" rx="18" ry="18"/>
<text text-anchor="middle" x="206" y="-77.3" font-family="Helvetica,Arial,sans-serif" font-size="14.00">1</text>
</g>
<!-- 0&#45;&gt;1 -->
<g id="edge15" class="edge">
<title>0&#45;&gt;1</title>
<path fill="none" stroke="black" d="M36.17,-81C68.55,-81 138.91,-81 177.8,-81"/>
<polygon fill="black" stroke="black" points="177.88,-84.5 187.88,-81 177.88,-77.5 177.88,-84.5"/>
<text text-anchor="middle" x="98" y="-84.8" font-family="Helvetica,Arial,sans-serif" font-size="14.00">2</text>
</g>
<!-- 1&#45;&gt;6 -->
<g id="edge17" class="edge">
<title>1&#45;&gt;6</title>
<path fill="none" stroke="black" d="M220.34,-92.06C232.86,-102.44 251.78,-118.13 266.4,-130.26"/>
<polygon fill="black" stroke="black" points="264.5,-133.23 274.44,-136.92 268.97,-127.84 264.5,-133.23"/>
<text text-anchor="middle" x="246" y="-119.8" font-family="Helvetica,Arial,sans-serif" font-size="14.00">2</text>
</g>
<!-- 1&#45;&gt;5 -->
<g id="edge16" class="edge">
<title>1&#45;&gt;5</title>
<path fill="none" stroke="black" d="M224.17,-81.18C232.04,-81.32 241.5,-81.56 250,-82 253.35,-82.17 256.87,-82.39 260.35,-82.64"/>
<polygon fill="black" stroke="black" points="260.26,-86.14 270.5,-83.42 260.8,-79.16 260.26,-86.14"/>
<text text-anchor="middle" x="246" y="-85.8" font-family="Helvetica,Arial,sans-serif" font-size="14.00">2</text>
</g>
<!-- 4 -->
<g id="node13" class="node">
<title>4</title>
<ellipse fill="none" stroke="black" cx="345.6" cy="-36" rx="18" ry="18"/>
<text text-anchor="middle" x="345.6" y="-32.3" font-family="Helvetica,Arial,sans-serif" font-size="14.00">4</text>
</g>
<!-- 1&#45;&gt;4 -->
<g id="edge18" class="edge">
<title>1&#45;&gt;4</title>
<path fill="none" stroke="black" d="M222,-72.37C228.07,-69.13 235.24,-65.59 242,-63 267.01,-53.41 296.71,-46 317.71,-41.39"/>
<polygon fill="black" stroke="black" points="318.49,-44.81 327.54,-39.3 317.03,-37.96 318.49,-44.81"/>
<text text-anchor="middle" x="246" y="-66.8" font-family="Helvetica,Arial,sans-serif" font-size="14.00">0</text>
</g>
<!-- 4&#45;&gt;10 -->
<g id="edge19" class="edge">
<title>4&#45;&gt;10</title>
<path fill="none" stroke="black" d="M363.42,-32.5C378.5,-30.25 400.78,-29.18 417.6,-38 430.56,-44.8 451.46,-75.71 465.79,-98.77"/>
<polygon fill="black" stroke="black" points="462.9,-100.76 471.11,-107.46 468.87,-97.1 462.9,-100.76"/>
<text text-anchor="middle" x="399.6" y="-41.8" font-family="Helvetica,Arial,sans-serif" font-size="14.00">0</text>
</g>
</g>
</svg>
