<?xml version="1.0" encoding="UTF-8" standalone="no"?>
<!DOCTYPE svg PUBLIC "-//W3C//DTD SVG 1.1//EN"
 "http://www.w3.org/Graphics/SVG/1.1/DTD/svg11.dtd">
<!-- Generated by graphviz version 2.43.0 (0)
 -->
<!-- Title: finite_state_machine Pages: 1 -->
<svg width="446pt" height="141pt"
 viewBox="0.00 0.00 446.00 141.00" xmlns="http://www.w3.org/2000/svg" xmlns:xlink="http://www.w3.org/1999/xlink">
<g id="graph0" class="graph" transform="scale(1 1) rotate(0) translate(4 137)">
<title>finite_state_machine</title>
<polygon fill="white" stroke="transparent" points="-4,4 -4,-137 442,-137 442,4 -4,4"/>
<!-- 0 -->
<g id="node1" class="node">
<title>0</title>
<ellipse fill="none" stroke="black" cx="18" cy="-88" rx="18" ry="18"/>
<text text-anchor="middle" x="18" y="-84.3" font-family="Helvetica,Arial,sans-serif" font-size="14.00">0</text>
</g>
<!-- 1 -->
<g id="node2" class="node">
<title>1</title>
<ellipse fill="none" stroke="black" cx="124" cy="-61" rx="18" ry="18"/>
<text text-anchor="middle" x="124" y="-57.3" font-family="Helvetica,Arial,sans-serif" font-size="14.00">1</text>
</g>
<!-- 0&#45;&gt;1 -->
<g id="edge1" class="edge">
<title>0&#45;&gt;1</title>
<path fill="none" stroke="black" d="M34.8,-80.92C40.73,-78.47 47.59,-75.87 54,-74 67.62,-70.03 83.12,-66.99 95.98,-64.84"/>
<polygon fill="black" stroke="black" points="96.72,-68.27 106.05,-63.25 95.63,-61.35 96.72,-68.27"/>
<text text-anchor="middle" x="71" y="-77.8" font-family="Helvetica,Arial,sans-serif" font-size="14.00">10/10</text>
</g>
<!-- 2 -->
<g id="node3" class="node">
<title>2</title>
<ellipse fill="none" stroke="black" cx="124" cy="-115" rx="18" ry="18"/>
<text text-anchor="middle" x="124" y="-111.3" font-family="Helvetica,Arial,sans-serif" font-size="14.00">2</text>
</g>
<!-- 0&#45;&gt;2 -->
<g id="edge2" class="edge">
<title>0&#45;&gt;2</title>
<path fill="none" stroke="black" d="M35.71,-92.34C52.08,-96.59 77.3,-103.14 96.43,-108.1"/>
<polygon fill="black" stroke="black" points="95.77,-111.55 106.33,-110.67 97.53,-104.77 95.77,-111.55"/>
<text text-anchor="middle" x="71" y="-108.8" font-family="Helvetica,Arial,sans-serif" font-size="14.00">20/20</text>
</g>
<!-- 3 -->
<g id="node4" class="node">
<title>3</title>
<ellipse fill="none" stroke="black" cx="230" cy="-18" rx="18" ry="18"/>
<text text-anchor="middle" x="230" y="-14.3" font-family="Helvetica,Arial,sans-serif" font-size="14.00">3</text>
</g>
<!-- 1&#45;&gt;3 -->
<g id="edge3" class="edge">
<title>1&#45;&gt;3</title>
<path fill="none" stroke="black" d="M140.13,-52.69C146.22,-49.48 153.36,-45.9 160,-43 173.91,-36.93 189.82,-31.1 202.86,-26.59"/>
<polygon fill="black" stroke="black" points="204.25,-29.81 212.6,-23.29 202,-23.18 204.25,-29.81"/>
<text text-anchor="middle" x="177" y="-46.8" font-family="Helvetica,Arial,sans-serif" font-size="14.00">10/50</text>
</g>
<!-- 4 -->
<g id="node5" class="node">
<title>4</title>
<ellipse fill="none" stroke="black" cx="329" cy="-66" rx="18" ry="18"/>
<text text-anchor="middle" x="329" y="-62.3" font-family="Helvetica,Arial,sans-serif" font-size="14.00">4</text>
</g>
<!-- 1&#45;&gt;4 -->
<g id="edge4" class="edge">
<title>1&#45;&gt;4</title>
<path fill="none" stroke="black" d="M142.31,-61.43C177.59,-62.3 258.07,-64.28 300.56,-65.32"/>
<polygon fill="black" stroke="black" points="300.65,-68.83 310.74,-65.57 300.83,-61.83 300.65,-68.83"/>
<text text-anchor="middle" x="230" y="-67.8" font-family="Helvetica,Arial,sans-serif" font-size="14.00">0/10</text>
</g>
<!-- 2&#45;&gt;3 -->
<g id="edge5" class="edge">
<title>2&#45;&gt;3</title>
<path fill="none" stroke="black" d="M139.56,-105.38C154.12,-95.41 176.77,-78.94 194,-62 200.6,-55.51 207.12,-47.78 212.71,-40.63"/>
<polygon fill="black" stroke="black" points="215.54,-42.69 218.79,-32.61 209.96,-38.47 215.54,-42.69"/>
<text text-anchor="middle" x="177" y="-92.8" font-family="Helvetica,Arial,sans-serif" font-size="14.00">20/20</text>
</g>
<!-- 2&#45;&gt;4 -->
<g id="edge6" class="edge">
<title>2&#45;&gt;4</title>
<path fill="none" stroke="black" d="M142.14,-114.14C156.18,-113.22 176.51,-111.42 194,-108 239,-99.2 249.48,-93.44 293,-79 296.14,-77.96 299.41,-76.82 302.65,-75.66"/>
<polygon fill="black" stroke="black" points="303.88,-78.93 312.05,-72.19 301.46,-72.36 303.88,-78.93"/>
<text text-anchor="middle" x="230" y="-107.8" font-family="Helvetica,Arial,sans-serif" font-size="14.00">0/33</text>
</g>
<!-- 3&#45;&gt;4 -->
<g id="edge8" class="edge">
<title>3&#45;&gt;4</title>
<path fill="none" stroke="black" d="M247.19,-23.53C259.93,-28.11 277.99,-35.14 293,-43 297.1,-45.14 301.32,-47.64 305.35,-50.19"/>
<polygon fill="black" stroke="black" points="303.47,-53.14 313.75,-55.71 307.31,-47.29 303.47,-53.14"/>
<text text-anchor="middle" x="279.5" y="-46.8" font-family="Helvetica,Arial,sans-serif" font-size="14.00">0/20</text>
</g>
<!-- 5 -->
<g id="node6" class="node">
<title>5</title>
<ellipse fill="none" stroke="black" cx="420" cy="-25" rx="18" ry="18"/>
<text text-anchor="middle" x="420" y="-21.3" font-family="Helvetica,Arial,sans-serif" font-size="14.00">5</text>
</g>
<!-- 3&#45;&gt;5 -->
<g id="edge9" class="edge">
<title>3&#45;&gt;5</title>
<path fill="none" stroke="black" d="M248.02,-18.63C280.65,-19.85 352.29,-22.52 391.69,-23.98"/>
<polygon fill="black" stroke="black" points="391.76,-27.49 401.89,-24.36 392.02,-20.49 391.76,-27.49"/>
<text text-anchor="middle" x="329" y="-26.8" font-family="Helvetica,Arial,sans-serif" font-size="14.00">0/2</text>
</g>
<!-- 4&#45;&gt;5 -->
<g id="edge7" class="edge">
<title>4&#45;&gt;5</title>
<path fill="none" stroke="black" d="M345.91,-58.67C359.2,-52.55 378.39,-43.71 393.77,-36.62"/>
<polygon fill="black" stroke="black" points="395.61,-39.63 403.23,-32.27 392.68,-33.27 395.61,-39.63"/>
<text text-anchor="middle" x="374.5" y="-53.8" font-family="Helvetica,Arial,sans-serif" font-size="14.00">0/1</text>
</g>
</g>
</svg>
