<?xml version="1.0" encoding="UTF-8" standalone="no"?>
<!DOCTYPE svg PUBLIC "-//W3C//DTD SVG 1.1//EN"
 "http://www.w3.org/Graphics/SVG/1.1/DTD/svg11.dtd">
<!-- Generated by graphviz version 2.43.0 (0)
 -->
<!-- Title: finite_state_machine Pages: 1 -->
<svg width="624pt" height="272pt"
 viewBox="0.00 0.00 623.79 271.80" xmlns="http://www.w3.org/2000/svg" xmlns:xlink="http://www.w3.org/1999/xlink">
<g id="graph0" class="graph" transform="scale(1 1) rotate(0) translate(4 267.8)">
<title>finite_state_machine</title>
<polygon fill="white" stroke="transparent" points="-4,4 -4,-267.8 619.79,-267.8 619.79,4 -4,4"/>
<!-- 7 -->
<g id="node1" class="node">
<title>7</title>
<ellipse fill="none" stroke="black" cx="310.8" cy="-166.8" rx="18" ry="18"/>
<text text-anchor="middle" x="310.8" y="-163.1" font-family="Helvetica,Arial,sans-serif" font-size="14.00">7</text>
</g>
<!-- 10 -->
<g id="node2" class="node">
<title>10</title>
<ellipse fill="none" stroke="black" cx="498.39" cy="-160.8" rx="20.6" ry="20.6"/>
<text text-anchor="middle" x="498.39" y="-157.1" font-family="Helvetica,Arial,sans-serif" font-size="14.00">10</text>
</g>
<!-- 7&#45;&gt;10 -->
<g id="edge1" class="edge">
<title>7&#45;&gt;10</title>
<path fill="none" stroke="black" d="M328.93,-166.24C360.49,-165.22 428.2,-163.04 467.49,-161.76"/>
<polygon fill="black" stroke="black" points="467.65,-165.26 477.53,-161.44 467.42,-158.27 467.65,-165.26"/>
<text text-anchor="middle" x="404.6" y="-167.6" font-family="Helvetica,Arial,sans-serif" font-size="14.00">0/1</text>
</g>
<!-- 12 -->
<g id="node3" class="node">
<title>12</title>
<ellipse fill="none" stroke="black" cx="594.99" cy="-185.8" rx="20.6" ry="20.6"/>
<text text-anchor="middle" x="594.99" y="-182.1" font-family="Helvetica,Arial,sans-serif" font-size="14.00">12</text>
</g>
<!-- 7&#45;&gt;12 -->
<g id="edge2" class="edge">
<title>7&#45;&gt;12</title>
<path fill="none" stroke="black" d="M328.17,-172.78C334.75,-174.98 342.45,-177.29 349.6,-178.8 431.44,-196.03 453.58,-191.69 537.19,-193.8 545.63,-194.01 547.79,-194.68 556.19,-193.8 558.91,-193.51 561.73,-193.12 564.53,-192.65"/>
<polygon fill="black" stroke="black" points="565.34,-196.06 574.5,-190.73 564.02,-189.19 565.34,-196.06"/>
<text text-anchor="middle" x="450.1" y="-195.6" font-family="Helvetica,Arial,sans-serif" font-size="14.00">0/2</text>
</g>
<!-- 10&#45;&gt;12 -->
<g id="edge11" class="edge">
<title>10&#45;&gt;12</title>
<path fill="none" stroke="black" d="M518.99,-165.98C532.27,-169.49 550.05,-174.19 564.96,-178.13"/>
<polygon fill="black" stroke="black" points="564.18,-181.54 574.74,-180.71 565.97,-174.77 564.18,-181.54"/>
<text text-anchor="middle" x="546.69" y="-178.6" font-family="Helvetica,Arial,sans-serif" font-size="14.00">0/6</text>
</g>
<!-- 5 -->
<g id="node4" class="node">
<title>5</title>
<ellipse fill="none" stroke="black" cx="200" cy="-159.8" rx="18" ry="18"/>
<text text-anchor="middle" x="200" y="-156.1" font-family="Helvetica,Arial,sans-serif" font-size="14.00">5</text>
</g>
<!-- 5&#45;&gt;7 -->
<g id="edge3" class="edge">
<title>5&#45;&gt;7</title>
<path fill="none" stroke="black" d="M218,-160.89C235.22,-162 262.14,-163.73 282.39,-165.03"/>
<polygon fill="black" stroke="black" points="282.35,-168.54 292.56,-165.69 282.8,-161.55 282.35,-168.54"/>
<text text-anchor="middle" x="254" y="-167.6" font-family="Helvetica,Arial,sans-serif" font-size="14.00">0/1</text>
</g>
<!-- 5&#45;&gt;10 -->
<g id="edge4" class="edge">
<title>5&#45;&gt;10</title>
<path fill="none" stroke="black" d="M217.55,-154.92C235.28,-149.98 264.34,-142.65 290,-139.8 353.4,-132.76 427.8,-145.37 468.01,-153.91"/>
<polygon fill="black" stroke="black" points="467.42,-157.36 477.94,-156.08 468.92,-150.52 467.42,-157.36"/>
<text text-anchor="middle" x="359.1" y="-142.6" font-family="Helvetica,Arial,sans-serif" font-size="14.00">0/1</text>
</g>
<!-- 9 -->
<g id="node5" class="node">
<title>9</title>
<ellipse fill="none" stroke="black" cx="404.6" cy="-74.8" rx="18" ry="18"/>
<text text-anchor="middle" x="404.6" y="-71.1" font-family="Helvetica,Arial,sans-serif" font-size="14.00">9</text>
</g>
<!-- 9&#45;&gt;10 -->
<g id="edge5" class="edge">
<title>9&#45;&gt;10</title>
<path fill="none" stroke="black" d="M422.76,-76.82C434.24,-78.92 449.11,-83.19 459.6,-91.8 472.17,-102.12 481.22,-117.77 487.31,-131.56"/>
<polygon fill="black" stroke="black" points="484.22,-133.23 491.23,-141.17 490.7,-130.59 484.22,-133.23"/>
<text text-anchor="middle" x="450.1" y="-95.6" font-family="Helvetica,Arial,sans-serif" font-size="14.00">0/4</text>
</g>
<!-- 11 -->
<g id="node6" class="node">
<title>11</title>
<ellipse fill="none" stroke="black" cx="310.8" cy="-20.8" rx="20.6" ry="20.6"/>
<text text-anchor="middle" x="310.8" y="-17.1" font-family="Helvetica,Arial,sans-serif" font-size="14.00">11</text>
</g>
<!-- 11&#45;&gt;9 -->
<g id="edge6" class="edge">
<title>11&#45;&gt;9</title>
<path fill="none" stroke="black" d="M330.15,-28.82C341.5,-34.02 356.21,-41.23 368.6,-48.8 372.97,-51.47 377.48,-54.55 381.74,-57.63"/>
<polygon fill="black" stroke="black" points="379.93,-60.64 390.03,-63.83 384.12,-55.04 379.93,-60.64"/>
<text text-anchor="middle" x="359.1" y="-52.6" font-family="Helvetica,Arial,sans-serif" font-size="14.00">0/2</text>
</g>
<!-- 8 -->
<g id="node7" class="node">
<title>8</title>
<ellipse fill="none" stroke="black" cx="200" cy="-21.8" rx="18" ry="18"/>
<text text-anchor="middle" x="200" y="-18.1" font-family="Helvetica,Arial,sans-serif" font-size="14.00">8</text>
</g>
<!-- 8&#45;&gt;11 -->
<g id="edge7" class="edge">
<title>8&#45;&gt;11</title>
<path fill="none" stroke="black" d="M218,-21.64C234.51,-21.49 259.94,-21.26 279.85,-21.07"/>
<polygon fill="black" stroke="black" points="280,-24.57 289.97,-20.98 279.94,-17.57 280,-24.57"/>
<text text-anchor="middle" x="254" y="-25.6" font-family="Helvetica,Arial,sans-serif" font-size="14.00">0/2</text>
</g>
<!-- 6 -->
<g id="node8" class="node">
<title>6</title>
<ellipse fill="none" stroke="black" cx="200" cy="-77.8" rx="18" ry="18"/>
<text text-anchor="middle" x="200" y="-74.1" font-family="Helvetica,Arial,sans-serif" font-size="14.00">6</text>
</g>
<!-- 6&#45;&gt;9 -->
<g id="edge8" class="edge">
<title>6&#45;&gt;9</title>
<path fill="none" stroke="black" d="M218.27,-77.54C253.48,-77.02 333.81,-75.83 376.21,-75.2"/>
<polygon fill="black" stroke="black" points="376.42,-78.7 386.37,-75.05 376.32,-71.7 376.42,-78.7"/>
<text text-anchor="middle" x="310.8" y="-79.6" font-family="Helvetica,Arial,sans-serif" font-size="14.00">0/2</text>
</g>
<!-- 3 -->
<g id="node9" class="node">
<title>3</title>
<ellipse fill="none" stroke="black" cx="109" cy="-48.8" rx="18" ry="18"/>
<text text-anchor="middle" x="109" y="-45.1" font-family="Helvetica,Arial,sans-serif" font-size="14.00">3</text>
</g>
<!-- 3&#45;&gt;8 -->
<g id="edge9" class="edge">
<title>3&#45;&gt;8</title>
<path fill="none" stroke="black" d="M122.5,-36.52C128.72,-31.24 136.69,-25.63 145,-22.8 153.45,-19.91 163.09,-19.04 171.87,-19.08"/>
<polygon fill="black" stroke="black" points="171.86,-22.58 182,-19.5 172.15,-15.58 171.86,-22.58"/>
<text text-anchor="middle" x="154.5" y="-26.6" font-family="Helvetica,Arial,sans-serif" font-size="14.00">0/2</text>
</g>
<!-- 3&#45;&gt;6 -->
<g id="edge10" class="edge">
<title>3&#45;&gt;6</title>
<path fill="none" stroke="black" d="M126.82,-51.49C137.62,-53.47 151.85,-56.56 164,-60.8 167.59,-62.05 171.3,-63.57 174.89,-65.19"/>
<polygon fill="black" stroke="black" points="173.47,-68.39 184,-69.56 176.49,-62.08 173.47,-68.39"/>
<text text-anchor="middle" x="154.5" y="-64.6" font-family="Helvetica,Arial,sans-serif" font-size="14.00">0/2</text>
</g>
<!-- 2 -->
<g id="node10" class="node">
<title>2</title>
<ellipse fill="none" stroke="black" cx="109" cy="-102.8" rx="18" ry="18"/>
<text text-anchor="middle" x="109" y="-99.1" font-family="Helvetica,Arial,sans-serif" font-size="14.00">2</text>
</g>
<!-- 2&#45;&gt;5 -->
<g id="edge12" class="edge">
<title>2&#45;&gt;5</title>
<path fill="none" stroke="black" d="M126.2,-97.02C137.53,-94.02 152.61,-92.2 164,-98.8 176.88,-106.26 185.43,-120.45 190.86,-133.27"/>
<polygon fill="black" stroke="black" points="187.6,-134.55 194.41,-142.67 194.15,-132.08 187.6,-134.55"/>
<text text-anchor="middle" x="154.5" y="-102.6" font-family="Helvetica,Arial,sans-serif" font-size="14.00">2/2</text>
</g>
<!-- 4 -->
<g id="node11" class="node">
<title>4</title>
<ellipse fill="none" stroke="black" cx="254" cy="-229.8" rx="18" ry="18"/>
<text text-anchor="middle" x="254" y="-226.1" font-family="Helvetica,Arial,sans-serif" font-size="14.00">4</text>
</g>
<!-- 4&#45;&gt;10 -->
<g id="edge13" class="edge">
<title>4&#45;&gt;10</title>
<path fill="none" stroke="black" d="M271.31,-234.87C307.97,-245.23 398.45,-264.97 459.6,-228.8 473.76,-220.42 483.01,-204.6 488.81,-190.33"/>
<polygon fill="black" stroke="black" points="492.14,-191.41 492.29,-180.81 485.57,-189 492.14,-191.41"/>
<text text-anchor="middle" x="359.1" y="-252.6" font-family="Helvetica,Arial,sans-serif" font-size="14.00">0/2</text>
</g>
<!-- 1 -->
<g id="node12" class="node">
<title>1</title>
<ellipse fill="none" stroke="black" cx="109" cy="-167.8" rx="18" ry="18"/>
<text text-anchor="middle" x="109" y="-164.1" font-family="Helvetica,Arial,sans-serif" font-size="14.00">1</text>
</g>
<!-- 1&#45;&gt;5 -->
<g id="edge14" class="edge">
<title>1&#45;&gt;5</title>
<path fill="none" stroke="black" d="M127.16,-166.26C139.84,-165.12 157.36,-163.54 171.92,-162.23"/>
<polygon fill="black" stroke="black" points="172.25,-165.72 181.89,-161.34 171.62,-158.75 172.25,-165.72"/>
<text text-anchor="middle" x="154.5" y="-167.6" font-family="Helvetica,Arial,sans-serif" font-size="14.00">2/2</text>
</g>
<!-- 1&#45;&gt;6 -->
<g id="edge15" class="edge">
<title>1&#45;&gt;6</title>
<path fill="none" stroke="black" d="M122.49,-155.41C133.47,-144.49 149.85,-128.15 164,-113.8 169.1,-108.63 174.59,-103.01 179.67,-97.78"/>
<polygon fill="black" stroke="black" points="182.28,-100.12 186.73,-90.5 177.26,-95.24 182.28,-100.12"/>
<text text-anchor="middle" x="154.5" y="-134.6" font-family="Helvetica,Arial,sans-serif" font-size="14.00">0/2</text>
</g>
<!-- 1&#45;&gt;4 -->
<g id="edge16" class="edge">
<title>1&#45;&gt;4</title>
<path fill="none" stroke="black" d="M125.85,-174.67C150.55,-185.38 198.42,-206.13 227.86,-218.9"/>
<polygon fill="black" stroke="black" points="226.51,-222.13 237.08,-222.9 229.3,-215.71 226.51,-222.13"/>
<text text-anchor="middle" x="154.5" y="-194.6" font-family="Helvetica,Arial,sans-serif" font-size="14.00">0/2</text>
</g>
<!-- 0 -->
<g id="node13" class="node">
<title>0</title>
<ellipse fill="none" stroke="black" cx="18" cy="-102.8" rx="18" ry="18"/>
<text text-anchor="middle" x="18" y="-99.1" font-family="Helvetica,Arial,sans-serif" font-size="14.00">0</text>
</g>
<!-- 0&#45;&gt;3 -->
<g id="edge19" class="edge">
<title>0&#45;&gt;3</title>
<path fill="none" stroke="black" d="M33.7,-93.88C47.48,-85.52 68.33,-72.87 84.43,-63.1"/>
<polygon fill="black" stroke="black" points="86.55,-65.91 93.28,-57.73 82.92,-59.92 86.55,-65.91"/>
<text text-anchor="middle" x="63.5" y="-83.6" font-family="Helvetica,Arial,sans-serif" font-size="14.00">0/2</text>
</g>
<!-- 0&#45;&gt;2 -->
<g id="edge18" class="edge">
<title>0&#45;&gt;2</title>
<path fill="none" stroke="black" d="M36.16,-102.8C48.72,-102.8 66.02,-102.8 80.5,-102.8"/>
<polygon fill="black" stroke="black" points="80.89,-106.3 90.89,-102.8 80.89,-99.3 80.89,-106.3"/>
<text text-anchor="middle" x="63.5" y="-106.6" font-family="Helvetica,Arial,sans-serif" font-size="14.00">2/2</text>
</g>
<!-- 0&#45;&gt;1 -->
<g id="edge17" class="edge">
<title>0&#45;&gt;1</title>
<path fill="none" stroke="black" d="M32.91,-112.95C47.06,-123.29 69.22,-139.48 85.81,-151.59"/>
<polygon fill="black" stroke="black" points="83.76,-154.43 93.9,-157.5 87.89,-148.77 83.76,-154.43"/>
<text text-anchor="middle" x="63.5" y="-144.6" font-family="Helvetica,Arial,sans-serif" font-size="14.00">2/4</text>
</g>
</g>
</svg>
