<?xml version="1.0" encoding="UTF-8" standalone="no"?>
<!DOCTYPE svg PUBLIC "-//W3C//DTD SVG 1.1//EN"
 "http://www.w3.org/Graphics/SVG/1.1/DTD/svg11.dtd">
<!-- Generated by graphviz version 2.43.0 (0)
 -->
<!-- Title: finite_state_machine Pages: 1 -->
<svg width="372pt" height="259pt"
 viewBox="0.00 0.00 372.19 259.09" xmlns="http://www.w3.org/2000/svg" xmlns:xlink="http://www.w3.org/1999/xlink">
<g id="graph0" class="graph" transform="scale(1 1) rotate(0) translate(4 255.09)">
<title>finite_state_machine</title>
<polygon fill="white" stroke="transparent" points="-4,4 -4,-255.09 368.19,-255.09 368.19,4 -4,4"/>
<!-- 1 -->
<g id="node1" class="node">
<title>1</title>
<ellipse fill="none" stroke="black" cx="131.09" cy="-111.55" rx="18" ry="18"/>
<text text-anchor="middle" x="131.09" y="-107.85" font-family="Helvetica,Arial,sans-serif" font-size="14.00">1</text>
</g>
<!-- 0 -->
<g id="node2" class="node">
<title>0</title>
<ellipse fill="none" stroke="black" cx="226.09" cy="-182.55" rx="18" ry="18"/>
<text text-anchor="middle" x="226.09" y="-178.85" font-family="Helvetica,Arial,sans-serif" font-size="14.00">0</text>
</g>
<!-- 1&#45;&gt;0 -->
<g id="edge1" class="edge">
<title>1&#45;&gt;0</title>
<path fill="none" stroke="black" d="M140.26,-127.57C146.39,-138.19 155.67,-151.74 167.09,-160.55 176.34,-167.67 188.15,-172.71 198.7,-176.14"/>
<polygon fill="black" stroke="black" points="197.72,-179.5 208.3,-178.97 199.69,-172.79 197.72,-179.5"/>
<text text-anchor="middle" x="178.59" y="-176.35" font-family="Helvetica,Arial,sans-serif" font-size="14.00">100</text>
</g>
<!-- 2 -->
<g id="node3" class="node">
<title>2</title>
<ellipse fill="none" stroke="black" cx="333.64" cy="-111.55" rx="18" ry="18"/>
<text text-anchor="middle" x="333.64" y="-107.85" font-family="Helvetica,Arial,sans-serif" font-size="14.00">2</text>
</g>
<!-- 1&#45;&gt;2 -->
<g id="edge2" class="edge">
<title>1&#45;&gt;2</title>
<path fill="none" stroke="black" d="M149.19,-111.55C184.05,-111.55 263.56,-111.55 305.53,-111.55"/>
<polygon fill="black" stroke="black" points="305.59,-115.05 315.59,-111.55 305.59,-108.05 305.59,-115.05"/>
<text text-anchor="middle" x="226.09" y="-115.35" font-family="Helvetica,Arial,sans-serif" font-size="14.00">100</text>
</g>
<!-- 0&#45;&gt;1 -->
<g id="edge5" class="edge">
<title>0&#45;&gt;1</title>
<path fill="none" stroke="black" d="M214.93,-168.02C208.5,-159.56 199.63,-149.11 190.09,-141.55 180.24,-133.72 168.02,-127.04 157.35,-121.99"/>
<polygon fill="black" stroke="black" points="158.64,-118.73 148.09,-117.81 155.77,-125.11 158.64,-118.73"/>
<text text-anchor="middle" x="178.59" y="-145.35" font-family="Helvetica,Arial,sans-serif" font-size="14.00">100</text>
</g>
<!-- 0&#45;&gt;2 -->
<g id="edge6" class="edge">
<title>0&#45;&gt;2</title>
<path fill="none" stroke="black" d="M243.75,-178.34C255.87,-174.8 272.32,-168.95 285.09,-160.55 296.28,-153.2 306.85,-142.8 315.17,-133.47"/>
<polygon fill="black" stroke="black" points="318.02,-135.52 321.86,-125.65 312.7,-130.97 318.02,-135.52"/>
<text text-anchor="middle" x="273.59" y="-175.35" font-family="Helvetica,Arial,sans-serif" font-size="14.00">100</text>
</g>
<!-- 1000 -->
<g id="node4" class="node">
<title>1000</title>
<ellipse fill="none" stroke="black" cx="333.64" cy="-220.55" rx="30.59" ry="30.59"/>
<text text-anchor="middle" x="333.64" y="-216.85" font-family="Helvetica,Arial,sans-serif" font-size="14.00">1000</text>
</g>
<!-- 0&#45;&gt;1000 -->
<g id="edge7" class="edge">
<title>0&#45;&gt;1000</title>
<path fill="none" stroke="black" d="M242.6,-190.14C248.61,-192.96 255.61,-196.06 262.09,-198.55 272.36,-202.47 283.64,-206.24 294.13,-209.5"/>
<polygon fill="black" stroke="black" points="293.28,-212.9 303.87,-212.47 295.33,-206.21 293.28,-212.9"/>
<text text-anchor="middle" x="273.59" y="-210.35" font-family="Helvetica,Arial,sans-serif" font-size="14.00">40</text>
</g>
<!-- 2&#45;&gt;1 -->
<g id="edge4" class="edge">
<title>2&#45;&gt;1</title>
<path fill="none" stroke="black" d="M316.16,-106.13C292.36,-98.96 246.95,-87.76 208.09,-92.55 191.26,-94.62 172.79,-99.18 158.27,-103.32"/>
<polygon fill="black" stroke="black" points="157.08,-100.02 148.48,-106.21 159.06,-106.73 157.08,-100.02"/>
<text text-anchor="middle" x="226.09" y="-96.35" font-family="Helvetica,Arial,sans-serif" font-size="14.00">100</text>
</g>
<!-- 2&#45;&gt;0 -->
<g id="edge3" class="edge">
<title>2&#45;&gt;0</title>
<path fill="none" stroke="black" d="M316.31,-117.44C301.38,-123.27 279.11,-133.11 262.09,-145.55 256.05,-149.96 250.18,-155.51 245.02,-160.95"/>
<polygon fill="black" stroke="black" points="242.13,-158.92 238.05,-168.7 247.34,-163.61 242.13,-158.92"/>
<text text-anchor="middle" x="273.59" y="-149.35" font-family="Helvetica,Arial,sans-serif" font-size="14.00">100</text>
</g>
<!-- 2000 -->
<g id="node5" class="node">
<title>2000</title>
<ellipse fill="none" stroke="black" cx="30.55" cy="-30.55" rx="30.59" ry="30.59"/>
<text text-anchor="middle" x="30.55" y="-26.85" font-family="Helvetica,Arial,sans-serif" font-size="14.00">2000</text>
</g>
<!-- 2000&#45;&gt;1 -->
<g id="edge8" class="edge">
<title>2000&#45;&gt;1</title>
<path fill="none" stroke="black" d="M54.65,-49.54C71.03,-63 92.83,-80.92 108.79,-94.04"/>
<polygon fill="black" stroke="black" points="106.59,-96.76 116.54,-100.41 111.04,-91.35 106.59,-96.76"/>
<text text-anchor="middle" x="87.09" y="-85.35" font-family="Helvetica,Arial,sans-serif" font-size="14.00">20</text>
</g>
<!-- 2000&#45;&gt;2 -->
<g id="edge9" class="edge">
<title>2000&#45;&gt;2</title>
<path fill="none" stroke="black" d="M60.93,-35.68C108.68,-44.43 205.77,-63.9 285.09,-90.55 292.62,-93.08 300.59,-96.35 307.81,-99.55"/>
<polygon fill="black" stroke="black" points="306.53,-102.82 317.08,-103.81 309.45,-96.45 306.53,-102.82"/>
<text text-anchor="middle" x="178.59" y="-67.35" font-family="Helvetica,Arial,sans-serif" font-size="14.00">20</text>
</g>
</g>
</svg>
