<?xml version="1.0" encoding="UTF-8" standalone="no"?>
<!DOCTYPE svg PUBLIC "-//W3C//DTD SVG 1.1//EN"
 "http://www.w3.org/Graphics/SVG/1.1/DTD/svg11.dtd">
<!-- Generated by graphviz version 2.43.0 (0)
 -->
<!-- Title: finite_state_machine Pages: 1 -->
<svg width="569pt" height="270pt"
 viewBox="0.00 0.00 568.79 269.80" xmlns="http://www.w3.org/2000/svg" xmlns:xlink="http://www.w3.org/1999/xlink">
<g id="graph0" class="graph" transform="scale(1 1) rotate(0) translate(4 265.8)">
<title>finite_state_machine</title>
<polygon fill="white" stroke="transparent" points="-4,4 -4,-265.8 564.79,-265.8 564.79,4 -4,4"/>
<!-- 7 -->
<g id="node1" class="node">
<title>7</title>
<ellipse fill="none" stroke="black" cx="288.8" cy="-166.8" rx="18" ry="18"/>
<text text-anchor="middle" x="288.8" y="-163.1" font-family="Helvetica,Arial,sans-serif" font-size="14.00">7</text>
</g>
<!-- 10 -->
<g id="node2" class="node">
<title>10</title>
<ellipse fill="none" stroke="black" cx="454.39" cy="-160.8" rx="20.6" ry="20.6"/>
<text text-anchor="middle" x="454.39" y="-157.1" font-family="Helvetica,Arial,sans-serif" font-size="14.00">10</text>
</g>
<!-- 7&#45;&gt;10 -->
<g id="edge1" class="edge">
<title>7&#45;&gt;10</title>
<path fill="none" stroke="black" d="M307,-166.17C334.53,-165.16 388.89,-163.16 423.06,-161.91"/>
<polygon fill="black" stroke="black" points="423.52,-165.4 433.39,-161.53 423.27,-158.4 423.52,-165.4"/>
<text text-anchor="middle" x="371.6" y="-167.6" font-family="Helvetica,Arial,sans-serif" font-size="14.00">1</text>
</g>
<!-- 12 -->
<g id="node3" class="node">
<title>12</title>
<ellipse fill="none" stroke="black" cx="539.99" cy="-185.8" rx="20.6" ry="20.6"/>
<text text-anchor="middle" x="539.99" y="-182.1" font-family="Helvetica,Arial,sans-serif" font-size="14.00">12</text>
</g>
<!-- 7&#45;&gt;12 -->
<g id="edge2" class="edge">
<title>7&#45;&gt;12</title>
<path fill="none" stroke="black" d="M306.2,-172.62C312.79,-174.79 320.49,-177.13 327.6,-178.8 399.51,-195.64 419.34,-191.56 493.19,-192.8 496.75,-192.86 497.65,-193.12 501.19,-192.8 503.9,-192.55 506.71,-192.2 509.51,-191.79"/>
<polygon fill="black" stroke="black" points="510.19,-195.23 519.47,-190.12 509.03,-188.33 510.19,-195.23"/>
<text text-anchor="middle" x="411.6" y="-195.6" font-family="Helvetica,Arial,sans-serif" font-size="14.00">2</text>
</g>
<!-- 10&#45;&gt;12 -->
<g id="edge11" class="edge">
<title>10&#45;&gt;12</title>
<path fill="none" stroke="black" d="M474.78,-166.6C485.23,-169.72 498.32,-173.64 509.96,-177.12"/>
<polygon fill="black" stroke="black" points="509.12,-180.52 519.71,-180.03 511.13,-173.81 509.12,-180.52"/>
<text text-anchor="middle" x="497.19" y="-177.6" font-family="Helvetica,Arial,sans-serif" font-size="14.00">6</text>
</g>
<!-- 5 -->
<g id="node4" class="node">
<title>5</title>
<ellipse fill="none" stroke="black" cx="178" cy="-159.8" rx="18" ry="18"/>
<text text-anchor="middle" x="178" y="-156.1" font-family="Helvetica,Arial,sans-serif" font-size="14.00">5</text>
</g>
<!-- 5&#45;&gt;7 -->
<g id="edge3" class="edge">
<title>5&#45;&gt;7</title>
<path fill="none" stroke="black" d="M196,-160.89C213.22,-162 240.14,-163.73 260.39,-165.03"/>
<polygon fill="black" stroke="black" points="260.35,-168.54 270.56,-165.69 260.8,-161.55 260.35,-168.54"/>
<text text-anchor="middle" x="232" y="-167.6" font-family="Helvetica,Arial,sans-serif" font-size="14.00">1</text>
</g>
<!-- 5&#45;&gt;10 -->
<g id="edge4" class="edge">
<title>5&#45;&gt;10</title>
<path fill="none" stroke="black" d="M195.55,-154.92C213.28,-149.98 242.34,-142.65 268,-139.8 323.23,-133.67 387.7,-145.19 424.22,-153.45"/>
<polygon fill="black" stroke="black" points="423.65,-156.91 434.18,-155.78 425.24,-150.1 423.65,-156.91"/>
<text text-anchor="middle" x="331.6" y="-142.6" font-family="Helvetica,Arial,sans-serif" font-size="14.00">1</text>
</g>
<!-- 9 -->
<g id="node5" class="node">
<title>9</title>
<ellipse fill="none" stroke="black" cx="371.6" cy="-74.8" rx="18" ry="18"/>
<text text-anchor="middle" x="371.6" y="-71.1" font-family="Helvetica,Arial,sans-serif" font-size="14.00">9</text>
</g>
<!-- 9&#45;&gt;10 -->
<g id="edge5" class="edge">
<title>9&#45;&gt;10</title>
<path fill="none" stroke="black" d="M389.57,-78.57C398.14,-81.15 408.25,-85.32 415.6,-91.8 427.71,-102.49 436.7,-118.03 442.87,-131.66"/>
<polygon fill="black" stroke="black" points="439.75,-133.29 446.86,-141.15 446.21,-130.57 439.75,-133.29"/>
<text text-anchor="middle" x="411.6" y="-95.6" font-family="Helvetica,Arial,sans-serif" font-size="14.00">4</text>
</g>
<!-- 11 -->
<g id="node6" class="node">
<title>11</title>
<ellipse fill="none" stroke="black" cx="288.8" cy="-20.8" rx="20.6" ry="20.6"/>
<text text-anchor="middle" x="288.8" y="-17.1" font-family="Helvetica,Arial,sans-serif" font-size="14.00">11</text>
</g>
<!-- 11&#45;&gt;9 -->
<g id="edge6" class="edge">
<title>11&#45;&gt;9</title>
<path fill="none" stroke="black" d="M307.43,-31.07C316.04,-36.22 326.48,-42.65 335.6,-48.8 339.84,-51.67 344.29,-54.83 348.54,-57.94"/>
<polygon fill="black" stroke="black" points="346.73,-60.96 356.84,-64.13 350.91,-55.35 346.73,-60.96"/>
<text text-anchor="middle" x="331.6" y="-52.6" font-family="Helvetica,Arial,sans-serif" font-size="14.00">2</text>
</g>
<!-- 8 -->
<g id="node7" class="node">
<title>8</title>
<ellipse fill="none" stroke="black" cx="178" cy="-21.8" rx="18" ry="18"/>
<text text-anchor="middle" x="178" y="-18.1" font-family="Helvetica,Arial,sans-serif" font-size="14.00">8</text>
</g>
<!-- 8&#45;&gt;11 -->
<g id="edge7" class="edge">
<title>8&#45;&gt;11</title>
<path fill="none" stroke="black" d="M196,-21.64C212.51,-21.49 237.94,-21.26 257.85,-21.07"/>
<polygon fill="black" stroke="black" points="258,-24.57 267.97,-20.98 257.94,-17.57 258,-24.57"/>
<text text-anchor="middle" x="232" y="-25.6" font-family="Helvetica,Arial,sans-serif" font-size="14.00">2</text>
</g>
<!-- 6 -->
<g id="node8" class="node">
<title>6</title>
<ellipse fill="none" stroke="black" cx="178" cy="-77.8" rx="18" ry="18"/>
<text text-anchor="middle" x="178" y="-74.1" font-family="Helvetica,Arial,sans-serif" font-size="14.00">6</text>
</g>
<!-- 6&#45;&gt;9 -->
<g id="edge8" class="edge">
<title>6&#45;&gt;9</title>
<path fill="none" stroke="black" d="M196,-77.53C229.22,-77.01 303.01,-75.86 343.2,-75.23"/>
<polygon fill="black" stroke="black" points="343.41,-78.72 353.36,-75.07 343.3,-71.73 343.41,-78.72"/>
<text text-anchor="middle" x="288.8" y="-79.6" font-family="Helvetica,Arial,sans-serif" font-size="14.00">2</text>
</g>
<!-- 3 -->
<g id="node9" class="node">
<title>3</title>
<ellipse fill="none" stroke="black" cx="98" cy="-48.8" rx="18" ry="18"/>
<text text-anchor="middle" x="98" y="-45.1" font-family="Helvetica,Arial,sans-serif" font-size="14.00">3</text>
</g>
<!-- 3&#45;&gt;8 -->
<g id="edge9" class="edge">
<title>3&#45;&gt;8</title>
<path fill="none" stroke="black" d="M111.5,-36.54C117.73,-31.26 125.7,-25.65 134,-22.8 138.86,-21.13 144.22,-20.28 149.46,-19.94"/>
<polygon fill="black" stroke="black" points="149.87,-23.44 159.84,-19.84 149.8,-16.44 149.87,-23.44"/>
<text text-anchor="middle" x="138" y="-26.6" font-family="Helvetica,Arial,sans-serif" font-size="14.00">2</text>
</g>
<!-- 3&#45;&gt;6 -->
<g id="edge10" class="edge">
<title>3&#45;&gt;6</title>
<path fill="none" stroke="black" d="M115.97,-52.78C123.98,-54.85 133.59,-57.61 142,-60.8 145.39,-62.08 148.89,-63.57 152.31,-65.13"/>
<polygon fill="black" stroke="black" points="151.05,-68.41 161.58,-69.57 154.08,-62.09 151.05,-68.41"/>
<text text-anchor="middle" x="138" y="-64.6" font-family="Helvetica,Arial,sans-serif" font-size="14.00">2</text>
</g>
<!-- 2 -->
<g id="node10" class="node">
<title>2</title>
<ellipse fill="none" stroke="black" cx="98" cy="-102.8" rx="18" ry="18"/>
<text text-anchor="middle" x="98" y="-99.1" font-family="Helvetica,Arial,sans-serif" font-size="14.00">2</text>
</g>
<!-- 2&#45;&gt;5 -->
<g id="edge12" class="edge">
<title>2&#45;&gt;5</title>
<path fill="none" stroke="black" d="M115.09,-96.99C123.61,-94.93 133.95,-94.14 142,-98.8 154.88,-106.26 163.43,-120.45 168.86,-133.27"/>
<polygon fill="black" stroke="black" points="165.6,-134.55 172.41,-142.67 172.15,-132.08 165.6,-134.55"/>
<text text-anchor="middle" x="138" y="-102.6" font-family="Helvetica,Arial,sans-serif" font-size="14.00">2</text>
</g>
<!-- 4 -->
<g id="node11" class="node">
<title>4</title>
<ellipse fill="none" stroke="black" cx="232" cy="-229.8" rx="18" ry="18"/>
<text text-anchor="middle" x="232" y="-226.1" font-family="Helvetica,Arial,sans-serif" font-size="14.00">4</text>
</g>
<!-- 4&#45;&gt;10 -->
<g id="edge13" class="edge">
<title>4&#45;&gt;10</title>
<path fill="none" stroke="black" d="M249.32,-234.8C283.1,-244.14 361.99,-260.53 415.6,-228.8 429.76,-220.41 439.01,-204.6 444.81,-190.33"/>
<polygon fill="black" stroke="black" points="448.14,-191.4 448.29,-180.81 441.57,-189 448.14,-191.4"/>
<text text-anchor="middle" x="331.6" y="-250.6" font-family="Helvetica,Arial,sans-serif" font-size="14.00">2</text>
</g>
<!-- 1 -->
<g id="node12" class="node">
<title>1</title>
<ellipse fill="none" stroke="black" cx="98" cy="-167.8" rx="18" ry="18"/>
<text text-anchor="middle" x="98" y="-164.1" font-family="Helvetica,Arial,sans-serif" font-size="14.00">1</text>
</g>
<!-- 1&#45;&gt;5 -->
<g id="edge14" class="edge">
<title>1&#45;&gt;5</title>
<path fill="none" stroke="black" d="M115.92,-166.06C125.77,-165.05 138.42,-163.76 149.65,-162.6"/>
<polygon fill="black" stroke="black" points="150.25,-166.06 159.84,-161.56 149.53,-159.1 150.25,-166.06"/>
<text text-anchor="middle" x="138" y="-167.6" font-family="Helvetica,Arial,sans-serif" font-size="14.00">2</text>
</g>
<!-- 1&#45;&gt;6 -->
<g id="edge15" class="edge">
<title>1&#45;&gt;6</title>
<path fill="none" stroke="black" d="M110.51,-154.52C123.18,-139.9 143.74,-116.18 158.64,-98.98"/>
<polygon fill="black" stroke="black" points="161.54,-100.98 165.44,-91.13 156.25,-96.4 161.54,-100.98"/>
<text text-anchor="middle" x="138" y="-128.6" font-family="Helvetica,Arial,sans-serif" font-size="14.00">2</text>
</g>
<!-- 1&#45;&gt;4 -->
<g id="edge16" class="edge">
<title>1&#45;&gt;4</title>
<path fill="none" stroke="black" d="M114.66,-175.15C137.29,-185.78 179.35,-205.54 206.21,-218.16"/>
<polygon fill="black" stroke="black" points="204.82,-221.37 215.36,-222.45 207.8,-215.03 204.82,-221.37"/>
<text text-anchor="middle" x="138" y="-190.6" font-family="Helvetica,Arial,sans-serif" font-size="14.00">2</text>
</g>
<!-- 0 -->
<g id="node13" class="node">
<title>0</title>
<ellipse fill="none" stroke="black" cx="18" cy="-102.8" rx="18" ry="18"/>
<text text-anchor="middle" x="18" y="-99.1" font-family="Helvetica,Arial,sans-serif" font-size="14.00">0</text>
</g>
<!-- 0&#45;&gt;3 -->
<g id="edge19" class="edge">
<title>0&#45;&gt;3</title>
<path fill="none" stroke="black" d="M33.31,-92.89C44.74,-84.98 60.99,-73.73 74.21,-64.58"/>
<polygon fill="black" stroke="black" points="76.55,-67.21 82.78,-58.64 72.57,-61.45 76.55,-67.21"/>
<text text-anchor="middle" x="58" y="-80.6" font-family="Helvetica,Arial,sans-serif" font-size="14.00">2</text>
</g>
<!-- 0&#45;&gt;2 -->
<g id="edge18" class="edge">
<title>0&#45;&gt;2</title>
<path fill="none" stroke="black" d="M36.31,-102.8C46.11,-102.8 58.58,-102.8 69.67,-102.8"/>
<polygon fill="black" stroke="black" points="69.74,-106.3 79.74,-102.8 69.74,-99.3 69.74,-106.3"/>
<text text-anchor="middle" x="58" y="-106.6" font-family="Helvetica,Arial,sans-serif" font-size="14.00">2</text>
</g>
<!-- 0&#45;&gt;1 -->
<g id="edge17" class="edge">
<title>0&#45;&gt;1</title>
<path fill="none" stroke="black" d="M32.23,-113.82C44.11,-123.72 61.76,-138.43 75.64,-150"/>
<polygon fill="black" stroke="black" points="73.78,-153 83.7,-156.72 78.26,-147.63 73.78,-153"/>
<text text-anchor="middle" x="58" y="-140.6" font-family="Helvetica,Arial,sans-serif" font-size="14.00">4</text>
</g>
</g>
</svg>
